
<svg width="256" height="256" viewBox="0 0 256 256" xmlns="http://www.w3.org/2000/svg">
  <defs>
    <linearGradient id="grad1" x1="0%" y1="0%" x2="100%" y2="100%">
      <stop offset="0%" style="stop-color:#4F46E5;stop-opacity:1" />
      <stop offset="100%" style="stop-color:#06B6D4;stop-opacity:1" />
    </linearGradient>
  </defs>

  <!-- Background circle -->
  <circle cx="128" cy="128" r="110" fill="url(#grad1)" />

  <!-- Map pin -->
  <path d="M128 210 C128 210 188 150 188 110 A60 60 0 1 0 68 110 C68 150 128 210 128 210 Z"
        fill="white" opacity="0.95"/>

  <!-- Backpack shape -->
  <rect x="98" y="90" width="60" height="60" rx="14" fill="#4F46E5"/>
  <rect x="108" y="75" width="40" height="20" rx="8" fill="#4F46E5"/>
  
  <!-- Pocket -->
  <rect x="108" y="110" width="40" height="25" rx="6" fill="white"/>

  <!-- Small sparkle (found item idea) -->
  <polygon points="180,60 185,72 198,72 187,80 191,92 180,84 169,92 173,80 162,72 175,72"
           fill="white" opacity="0.9"/>
</svg>
